<svg id="visual" viewBox="0 0 900 600" width="900" height="600" xmlns="http://www.w3.org/2000/svg" xmlns:xlink="http://www.w3.org/1999/xlink" version="1.1"><path d="M737 600L720.5 585.7C704 571.3 671 542.7 647 514.2C623 485.7 608 457.3 623 428.8C638 400.3 683 371.7 680 343C677 314.3 626 285.7 617 257C608 228.3 641 199.7 651.5 171.2C662 142.7 650 114.3 642.5 85.8C635 57.3 632 28.7 630.5 14.3L629 0L900 0L900 14.3C900 28.7 900 57.3 900 85.8C900 114.3 900 142.7 900 171.2C900 199.7 900 228.3 900 257C900 285.7 900 314.3 900 343C900 371.7 900 400.3 900 428.8C900 457.3 900 485.7 900 514.2C900 542.7 900 571.3 900 585.7L900 600Z" fill="#119823"></path><path d="M584 600L569 585.7C554 571.3 524 542.7 501.5 514.2C479 485.7 464 457.3 467 428.8C470 400.3 491 371.7 495.5 343C500 314.3 488 285.7 497 257C506 228.3 536 199.7 543.5 171.2C551 142.7 536 114.3 519.5 85.8C503 57.3 485 28.7 476 14.3L467 0L630 0L631.5 14.3C633 28.7 636 57.3 643.5 85.8C651 114.3 663 142.7 652.5 171.2C642 199.7 609 228.3 618 257C627 285.7 678 314.3 681 343C684 371.7 639 400.3 624 428.8C609 457.3 624 485.7 648 514.2C672 542.7 705 571.3 721.5 585.7L738 600Z" fill="#16b428"></path><path d="M440 600L431 585.7C422 571.3 404 542.7 392 514.2C380 485.7 374 457.3 374 428.8C374 400.3 380 371.7 383 343C386 314.3 386 285.7 395 257C404 228.3 422 199.7 420.5 171.2C419 142.7 398 114.3 387.5 85.8C377 57.3 377 28.7 377 14.3L377 0L468 0L477 14.3C486 28.7 504 57.3 520.5 85.8C537 114.3 552 142.7 544.5 171.2C537 199.7 507 228.3 498 257C489 285.7 501 314.3 496.5 343C492 371.7 471 400.3 468 428.8C465 457.3 480 485.7 502.5 514.2C525 542.7 555 571.3 570 585.7L585 600Z" fill="#1cd02d"></path><path d="M296 600L287 585.7C278 571.3 260 542.7 251 514.2C242 485.7 242 457.3 252.5 428.8C263 400.3 284 371.7 288.5 343C293 314.3 281 285.7 284 257C287 228.3 305 199.7 299 171.2C293 142.7 263 114.3 261.5 85.8C260 57.3 287 28.7 300.5 14.3L314 0L378 0L378 14.3C378 28.7 378 57.3 388.5 85.8C399 114.3 420 142.7 421.5 171.2C423 199.7 405 228.3 396 257C387 285.7 387 314.3 384 343C381 371.7 375 400.3 375 428.8C375 457.3 381 485.7 393 514.2C405 542.7 423 571.3 432 585.7L441 600Z" fill="#4fd852"></path><path d="M0 600L0 585.7C0 571.3 0 542.7 0 514.2C0 485.7 0 457.3 0 428.8C0 400.3 0 371.7 0 343C0 314.3 0 285.7 0 257C0 228.3 0 199.7 0 171.2C0 142.7 0 114.3 0 85.8C0 57.3 0 28.7 0 14.3L0 0L315 0L301.5 14.3C288 28.7 261 57.3 262.5 85.8C264 114.3 294 142.7 300 171.2C306 199.7 288 228.3 285 257C282 285.7 294 314.3 289.5 343C285 371.7 264 400.3 253.5 428.8C243 457.3 243 485.7 252 514.2C261 542.7 279 571.3 288 585.7L297 600Z" fill="#6fe071"></path></svg>